<svg xmlns="http://www.w3.org/2000/svg" width="29.17" height="34.497" viewBox="0 0 29.17 34.497">
  <path id="Path_1976" data-name="Path 1976" d="M55.062-73.224a7.718,7.718,0,0,1-4.171-1.219,8.608,8.608,0,0,1-2.952-3.216,9.49,9.49,0,0,1-1.093-4.585,9.242,9.242,0,0,1,1.08-4.447,8.562,8.562,0,0,1,2.965-3.216,7.579,7.579,0,0,1,4.171-1.206,7.456,7.456,0,0,1,4.146,1.206,8.84,8.84,0,0,1,2.965,3.216,9.074,9.074,0,0,1,1.106,4.447,9.636,9.636,0,0,1-1.093,4.61,8.558,8.558,0,0,1-2.952,3.241A7.4,7.4,0,0,1,55.062-73.224Zm0,16.608a20.53,20.53,0,0,1-5.352-.716A21.21,21.21,0,0,1,44.673-59.4,18.21,18.21,0,0,1,40.464-62.7a12.009,12.009,0,0,1,3.543-3.48,17.543,17.543,0,0,1,5.025-2.211,22.87,22.87,0,0,1,6.03-.766,23.128,23.128,0,0,1,6,.754,17.3,17.3,0,0,1,5.025,2.2,11.886,11.886,0,0,1,3.543,3.5A17.726,17.726,0,0,1,65.451-59.4a21.21,21.21,0,0,1-5.038,2.073A20.53,20.53,0,0,1,55.062-56.616Z" transform="translate(-40.464 91.113)" fill="rgba(255,255,255,0.8)"/>
</svg>
